<?xml version="1.0" encoding="utf-8"?>
<svg viewBox="0 0 500 500" xmlns="http://www.w3.org/2000/svg">
  <defs>
    <path d="M298.87 255.57C292.68 270 307.11 276.19 314.33 297.84C319.14 312.27 317.77 323.61 310.21 331.86C301.96 346.98 281.34 353.16 248.35 350.41C198.87 346.29 197.84 321.55 202.99 302.99C206.43 290.62 207.8 274.81 207.11 255.57" id="d1Kf6qWtlf"/>
    <path d="" id="aA8mXbSju"/>
    <path d="M197.84 268.53C236.3 243.27 273.08 240.11 308.17 259.06" id="ahcPAOVe"/>
    <path d="M206.08 171.03C145.6 237.7 145.6 273.78 206.08 279.28" id="b1Y0ThzXfE"/>
    <path d="M304.02 171.03C277.22 133.92 244.57 133.92 206.08 171.03" id="a9SUUGEP"/>
    <path d="M310.21 279.28C359.69 264.16 357.63 228.08 304.02 171.03" id="a2yrPmMcUU"/>
    <path d="M263.81 292.48C263.81 298.46 259.43 303.31 254.02 303.31C248.62 303.31 244.23 298.46 244.23 292.48C244.23 286.51 248.62 281.66 254.02 281.66C259.43 281.66 263.81 286.51 263.81 292.48Z" id="aAH8UBBu"/>
    <path d="M259.03 322.58C269.59 325.33 279.6 324.47 289.07 320" id="c3nCAFjV4"/>
    <path d="M306.13 280.63L310.21 279.28" id="a1XrWgPnmU"/>
    <path d="" id="a3dpvI8eBE"/>
    <path d="M260.78 289.83C260.78 291.86 259.26 293.5 257.4 293.5C255.53 293.5 254.02 291.86 254.02 289.83C254.02 287.81 255.53 286.17 257.4 286.17C259.26 286.17 260.78 287.81 260.78 289.83Z" id="hFC3pCivW"/>
    <path d="M252.11 289C252.11 290.01 251.44 290.83 250.61 290.83C249.78 290.83 249.11 290.01 249.11 289C249.11 287.99 249.78 287.17 250.61 287.17C251.44 287.17 252.11 287.99 252.11 289Z" id="b6066pt1C"/>
    <path d="M297.81 290.78C297.81 296.75 293.43 301.6 288.02 301.6C282.62 301.6 278.23 296.75 278.23 290.78C278.23 284.8 282.62 279.95 288.02 279.95C293.43 279.95 297.81 284.8 297.81 290.78Z" id="a1VbTXaygl"/>
    <path d="M294.78 288.13C294.78 290.15 293.26 291.79 291.4 291.79C289.53 291.79 288.02 290.15 288.02 288.13C288.02 286.1 289.53 284.46 291.4 284.46C293.26 284.46 294.78 286.1 294.78 288.13Z" id="e1bbER9jnk"/>
    <path d="M286.11 287.29C286.11 288.31 285.44 289.13 284.61 289.13C283.78 289.13 283.11 288.31 283.11 287.29C283.11 286.28 283.78 285.46 284.61 285.46C285.44 285.46 286.11 286.28 286.11 287.29Z" id="a5ials4TT"/>
  </defs>
  <rect x="-18.007" y="-21.979" width="546.264" height="544.772" style="fill: rgb(216, 216, 216); visibility: hidden;"/>
  <path stroke-width="0" d="M 131.408 303.974 C 132.806 296.974 244.369 239.449 261.001 242.567 C 271.433 244.521 331.33 232.738 329.814 237.897 C 327.982 244.134 377.628 250.376 374.864 256.752 C 372.471 262.279 368.516 271.059 369.017 277.37 C 369.677 285.732 370.644 291.823 374.68 298.505 C 377.304 302.852 382.764 312.368 386.109 317.25 C 392.501 326.575 399.103 334.698 403.245 346.436 C 405.74 353.506 418.827 383.825 420.48 390.258 C 422.751 399.115 424.893 404.127 426.835 414.876 C 428.628 424.796 430.589 432.009 428.344 440.907 C 426.168 449.529 423.879 455.528 421.021 458.801 C 419.816 460.182 409.995 471.409 409.046 472.211 C 406.533 474.336 400.073 478.967 392.317 482.146 C 383.671 485.692 374.652 490.242 362.319 492.305 C 346.272 494.988 327.696 495.247 310.625 495.695 C 296.788 496.058 292.804 496.098 284.218 495.697 C 278.078 495.413 263.165 494.765 259.04 494.267 C 248.779 493.033 240.706 493.065 231.102 492.196 C 220.098 491.199 214.977 490.478 199.9 487.412 C 187.338 484.859 170.159 480.664 160.798 476.36 C 152.976 472.764 140.599 465.726 138.138 463.852 C 137.254 463.181 128.683 454.847 128.011 454.017 C 126.248 451.834 123.133 451.796 119.988 446.439 C 116.806 441.011 111.435 424.058 110.069 416.481 C 108.22 406.251 111.961 390.358 114.61 378.245 C 117.073 366.96 124.06 358.756 127.001 350.024 C 129.298 343.209 127.883 334.456 127.892 327.745 C 127.902 319.75 128.808 327.422 127.976 318.234 C 127.152 309.099 129.812 311.972 131.408 303.974 Z" style="stroke-width: 2px; fill: rgb(255, 217, 176); stroke: rgb(255, 201, 142);"/>
  <path stroke-width="0" d="M 245.271 5.428 C 253.544 4.819 258.671 4.14 268.073 5.225 C 281.143 6.729 303.127 11.364 317.923 16.223 C 331.24 20.597 341.026 25.909 351.476 32.21 C 361.333 38.155 368.589 42.177 371.899 45.477 C 373.128 46.7 383.374 55.22 384.565 56.34 C 387.457 59.074 391.275 63.924 399.403 71.797 C 411.766 83.772 437.587 115.286 446.762 124.946 C 451.222 129.642 452.427 133.254 456.311 138.128 C 464.038 147.821 479.401 174.809 486.022 190.495 C 490.955 202.166 492.369 209.389 493.655 219.156 C 494.896 228.571 496.094 240.66 493.433 248.682 C 489.833 259.525 489.07 259.131 485.837 265.398 C 482.332 272.188 479.31 277.203 470.979 283.916 C 459.349 293.291 448.889 300.086 434.98 306.659 C 425.045 311.355 399.142 320.903 390.82 321.889 C 386.323 322.422 377.6 299.829 371.323 294.188 C 363.851 287.473 369.368 256.74 374.11 259.883 C 378.232 262.617 335.362 246.324 325.314 245.63 C 307.529 244.402 281.05 246.27 272.774 247.887 C 259.142 250.548 236.523 260.236 214.075 272.477 C 206.775 276.459 192.972 286.15 180.075 291.206 C 178.793 291.709 157.583 306.462 146.664 310.38 C 144.423 311.185 128.811 319.494 126.301 319.33 C 119.762 318.904 88.771 315 74.885 310.7 C 63.466 307.161 55.44 305.679 46.554 301.134 C 38.002 296.762 29.692 292.644 23.481 285.804 C 16.923 278.584 10.066 269.246 7.409 259.43 C 4.645 249.222 3.666 239.722 6.428 226.146 C 10.267 207.259 22.68 181.581 38.792 156.312 C 58.749 125.004 101.568 75.877 126.077 54.289 C 142.42 39.893 152.033 34.396 166.95 26.891 C 181.82 19.412 200.485 13.428 214.523 9.721 C 226.139 6.654 235.78 6.125 245.271 5.428 Z" style="stroke-width: 2px; paint-order: stroke markers; fill: rgb(255, 0, 132); stroke: rgb(255, 255, 255); stroke-opacity: 0;"/>
  <g transform="matrix(2.659603, 0, 0, 2.436879, -424.770508, -361.049255)" style="">
    <g>
      <g>
        <g/>
      </g>
      <g>
        <g>
          <path transform="matrix(1, 0, 0, 1, 0, 0)" opacity="1" fill-opacity="0" stroke="#000000" stroke-width="1" stroke-opacity="1"/>
        </g>
      </g>
      <g>
        <g>
          <path d="M 299.878 254.929 C 293.688 269.359 307.11 276.19 314.33 297.84 C 319.14 312.27 324.87 328.792 317.31 337.042 C 309.06 352.162 281.34 353.16 248.35 350.41 C 198.87 346.29 197.84 321.55 202.99 302.99 C 206.43 290.62 208.268 297.986 207.578 278.746 Q 214.013 276.406 218.885 273.206 C 257.345 247.946 273.08 240.11 308.17 259.06" opacity="1" fill-opacity="0" stroke="#000000" stroke-opacity="1" style="stroke-width: 1.96214px; stroke-linecap: round; stroke-linejoin: round;" transform="matrix(1, 0, 0, 1, 0, 0)"/>
        </g>
      </g>
      <g>
        <g/>
      </g>
      <g>
        <g/>
      </g>
      <g>
        <g/>
      </g>
      <g transform="matrix(1, 0, 0, 1, 16.33194, 1.713907)">
        <path d="M 250.058 288.03 C 250.058 296.467 243.907 303.31 236.308 303.31 C 228.724 303.31 222.559 296.467 222.559 288.03 C 222.559 279.607 228.724 272.765 236.308 272.765 C 243.907 272.765 250.058 279.607 250.058 288.03 Z" opacity="1" fill-opacity="1" fill="#000000" style=""/>
      </g>
      <g>
        <g>
          <path d="M 259.03 322.58 C 269.59 325.33 279.6 324.47 289.07 320" transform="matrix(1, 0, 0, 1, 0, 0)" opacity="1" fill-opacity="0" stroke="#000000" stroke-opacity="1" style="stroke-width: 1.56971px; stroke-linecap: round;"/>
        </g>
      </g>
      <g>
        <g/>
      </g>
      <g>
        <g>
          <path transform="matrix(1, 0, 0, 1, 0, 0)" opacity="1" fill-opacity="0" stroke="#000000" stroke-width="1" stroke-opacity="1"/>
        </g>
      </g>
      <g transform="matrix(1, 0, 0, 1, 17.902319, 1.371126)">
        <path d="M 245.803 284.291 C 245.803 287.156 243.668 289.469 241.056 289.469 C 238.429 289.469 236.308 287.156 236.308 284.291 C 236.308 281.442 238.429 279.128 241.056 279.128 C 243.668 279.128 245.803 281.442 245.803 284.291 Z" opacity="1" fill-opacity="1" fill="#efefef" style=""/>
      </g>
      <g transform="matrix(1, 0, 0, 1, 18.53047, 2.056689)">
        <path d="M 233.626 283.12 C 233.626 284.545 232.685 285.702 231.519 285.702 C 230.354 285.702 229.413 284.545 229.413 283.12 C 229.413 281.696 230.354 280.539 231.519 280.539 C 232.685 280.539 233.626 281.696 233.626 283.12 Z" opacity="1" fill-opacity="1" fill="#ffffff" style=""/>
      </g>
      <g transform="matrix(1, 0, 0, 1, 6.909667, 1.713907)">
        <path d="M 297.81 285.632 C 297.81 294.055 291.658 300.897 284.06 300.897 C 276.476 300.897 270.311 294.055 270.311 285.632 C 270.311 277.195 276.476 270.352 284.06 270.352 C 291.658 270.352 297.81 277.195 297.81 285.632 Z" opacity="1" fill-opacity="1" fill="#000000" style=""/>
      </g>
      <g transform="matrix(1, 0, 0, 1, 7.537818, 2.39947)">
        <path d="M 293.554 281.893 C 293.554 284.743 291.42 287.057 288.807 287.057 C 286.181 287.057 284.06 284.743 284.06 281.893 C 284.06 279.029 286.181 276.715 288.807 276.715 C 291.42 276.715 293.554 279.029 293.554 281.893 Z" opacity="1" fill-opacity="1" fill="#efefef" style=""/>
      </g>
      <g transform="matrix(1, 0, 0, 1, 8.480045, 2.056689)">
        <path d="M 281.378 280.708 C 281.378 282.147 280.437 283.304 279.271 283.304 C 278.105 283.304 277.164 282.147 277.164 280.708 C 277.164 279.283 278.105 278.126 279.271 278.126 C 280.437 278.126 281.378 279.283 281.378 280.708 Z" opacity="1" fill-opacity="1" fill="#ffffff" style=""/>
      </g>
    </g>
  </g>
  <path stroke-width="0" d="M 337.716 29.767 C 342.543 28.637 345.096 29.722 348.993 31.056 C 352.784 32.354 363.949 39.443 365.258 40.615 C 366.735 41.937 375.306 47.581 376.921 48.889 C 379.991 51.376 387.042 57.805 387.529 58.502 C 388.684 60.155 394.041 64.789 395.577 66.438 C 396.327 67.243 402.816 74.1 405.249 76.387 C 407.676 78.669 411.186 82.27 413.429 84.623 C 415.647 86.95 417.111 90.027 418 93.48 C 419.01 97.404 419.138 103.043 418.571 107.194 C 418.056 110.971 417.041 114.42 415.143 117.479 C 413.185 120.634 410.511 123.527 406.857 125.765 C 402.565 128.393 397.509 130.371 390.286 131.479 C 380.24 133.02 360.786 132.783 350.287 131.479 C 342.403 130.5 336.564 128.704 331.43 126.336 C 327.08 124.329 322.542 120.62 320.859 118.908 C 320.015 118.049 320.463 118.085 319.716 116.908 C 317.894 114.038 310.386 106.022 307.717 99.194 C 304.855 91.874 303.243 82.028 303.717 74.052 C 304.169 66.446 307.376 58.298 310.002 52.338 C 312.201 47.347 313.766 43.592 317.716 40.052 C 322.424 35.834 331.734 31.167 337.716 29.767 Z M 186.291 68.052 C 191.951 67.277 194.606 67.824 198.862 68.623 C 203.36 69.467 207.491 70.786 212.576 73.194 C 218.92 76.199 230.892 83.286 234.004 86.337 C 235.471 87.775 238.105 90.726 239.147 92.051 C 242 95.681 251.689 113.304 254.004 122.05 C 255.821 128.919 255.191 134.514 254.575 140.336 C 253.984 145.921 252.477 151.502 250.575 156.335 C 248.79 160.871 245.434 166.384 243.718 168.621 C 242.789 169.833 236.863 175.494 235.439 176.614 C 232.049 179.281 227.772 181.933 220.004 186.335 C 212.083 190.824 201.338 195.505 194.291 197.192 C 189.075 198.441 186.479 198.208 181.148 197.763 C 174.064 197.172 163.01 195.288 154.863 192.62 C 147.062 190.066 139.166 186.114 133.149 182.335 C 127.953 179.072 123.753 176.046 120.292 171.764 C 116.771 167.407 114.104 162.393 112.292 156.335 C 110.206 149.359 109.021 139.751 109.435 131.765 C 109.841 123.95 112.096 115.254 114.578 108.908 C 116.689 103.511 118.208 99.84 122.578 95.48 C 128.312 89.757 138.603 83.367 148.577 78.909 C 159.562 73.998 177.37 69.273 186.291 68.052 Z M 437.142 218.334 C 446.386 216.349 457.99 216.738 466.856 218.906 C 475.084 220.917 484.724 226.28 488.856 230.048 C 491.546 232.502 492.078 234.67 492.856 237.477 C 493.698 240.517 495.134 243.715 494.382 247.762 C 493.382 253.144 489.72 261.544 486.055 267.399 C 482.388 273.259 482.391 275.887 477.499 280.182 C 473.021 284.115 468.549 287.48 464.756 291.077 C 461.247 294.403 453.581 298.498 449.77 300.753 C 445.778 303.116 441.988 305.717 438.32 307.227 C 435.61 308.342 430.176 309.379 428 310.332 C 425.801 311.296 423.133 311.704 420.571 311.475 C 417.814 311.229 414.303 310.021 412 308.618 C 409.936 307.361 408.694 306.429 407.143 303.761 C 404.687 299.535 401.522 291.135 400.286 283.19 C 398.832 273.84 398.435 259.346 400.286 250.619 C 401.767 243.636 406.151 236.526 408.286 233.762 C 409.377 232.349 411.12 231.011 412 230.334 C 414.717 228.245 428.134 220.268 437.142 218.334 Z M 20.009 216.62 C 23.907 216.539 28.48 217.67 32.294 221.191 C 37.6 226.089 47.191 247.538 47.722 248.334 C 49.353 250.774 55.404 263.944 56.865 270.047 C 57.981 274.709 57.97 278.334 57.436 282.047 C 56.934 285.539 55.562 289.244 54.008 291.761 C 52.686 293.901 51.269 295.443 49.151 296.618 C 46.747 297.952 46.682 298.641 43.828 298.58 C 41.186 298.523 37.342 296.881 35.196 295.589 C 33.06 294.304 30.498 293.483 29.141 291.576 C 27.912 289.847 23.822 287.033 22.209 285.073 C 19.88 282.244 16.725 277.923 13.521 273.365 C 9.631 267.832 7.236 261.393 5.791 254.33 C 4.536 248.197 4.292 240.006 5.184 234.569 C 6.056 229.257 6.394 224.476 9.437 221.191 C 12.094 218.325 16.307 216.697 20.009 216.62 Z" style="stroke-width: 2px; fill: rgb(255, 255, 255); stroke: rgb(255, 255, 255);"/>
</svg>